<svg width="43" height="43" viewBox="0 0 43 43" fill="none" xmlns="http://www.w3.org/2000/svg">
<path d="M35.8334 5.375H7.16668C5.19047 5.375 3.58334 6.98212 3.58334 8.95833V34.0417C3.58334 36.0179 5.19047 37.625 7.16668 37.625H35.8334C37.8096 37.625 39.4167 36.0179 39.4167 34.0417V8.95833C39.4167 6.98212 37.8096 5.375 35.8334 5.375ZM35.8351 16.125C35.8334 16.125 35.8334 16.125 35.8351 16.125H35.002L30.2236 8.95833H35.8334L35.8351 16.125ZM17.0853 16.125L12.307 8.95833H16.9581L21.7365 16.125H17.0853ZM26.0437 16.125L21.2653 8.95833H25.9165L30.6949 16.125H26.0437V16.125ZM7.16668 8.95833H7.9998L12.7782 16.125H7.16668V8.95833ZM7.16668 34.0417V19.7083H35.8334L35.8369 34.0417H7.16668Z" fill="white"/>
<path d="M17.9167 32.25L27.7708 26.875L17.9167 21.5V32.25Z" fill="white"/>
</svg>
