<svg width="38" height="35" viewBox="0 0 38 35" fill="none" xmlns="http://www.w3.org/2000/svg">
<path d="M32.4466 0.646118C31.9043 0.646118 31.3881 0.870197 30.9543 1.26563L29.916 2.17117L36.0154 7.73095L37.0103 6.78455C37.8779 5.99369 37.8779 4.8153 37.0103 4.02443L33.9823 1.26431C33.5485 0.868879 32.9874 0.646118 32.4451 0.646118H32.4466ZM28.9211 2.95413L27.3391 4.14965L33.8464 10.0811L35.2924 8.76303L28.9211 2.95281V2.95413ZM26.4802 5.09605L13.4224 16.8773C13.3563 16.9271 13.2953 16.9822 13.2402 17.0421L13.1506 17.0829C12.9928 17.2477 12.8838 17.4464 12.8339 17.6603L11.0711 23.3031C10.9956 23.5264 10.9883 23.7643 11.05 23.9912C11.1118 24.218 11.2402 24.4252 11.4215 24.5905C11.6028 24.7558 11.8301 24.8728 12.079 24.9291C12.3279 24.9854 12.5888 24.9787 12.8339 24.9099L19.0244 23.3031C19.2299 23.2587 19.4219 23.1727 19.5861 23.0515C19.7503 22.9304 19.8825 22.7772 19.973 22.6032L32.8081 11.0275L30.3672 8.63781V8.76172L28.6493 7.1958H28.7852L26.4816 5.09605H26.4802ZM1.17586 6.0016C0.840853 6.05967 0.539143 6.2238 0.324024 6.46499C0.108905 6.70618 -0.00578098 7.00891 0.000224428 7.3197V33.6819C0.000224428 34.0315 0.152575 34.3667 0.423761 34.6139C0.694947 34.8611 1.06275 35 1.44627 35H30.3672C30.7507 35 31.1185 34.8611 31.3897 34.6139C31.6609 34.3667 31.8132 34.0315 31.8132 33.6819V19.1827C31.8132 18.8331 31.6609 18.4978 31.3897 18.2506C31.1185 18.0034 30.7507 17.8646 30.3672 17.8646C29.9837 17.8646 29.6158 18.0034 29.3447 18.2506C29.0735 18.4978 28.9211 18.8331 28.9211 19.1827V32.3638H2.89231V8.63781H17.3528C17.7363 8.63781 18.1041 8.49894 18.3753 8.25175C18.6465 8.00455 18.7988 7.66929 18.7988 7.3197C18.7988 6.97012 18.6465 6.63485 18.3753 6.38766C18.1041 6.14047 17.7363 6.0016 17.3528 6.0016H1.44627C1.40099 5.99965 1.35563 5.99965 1.31034 6.0016C1.26506 5.99965 1.2197 5.99965 1.17441 6.0016H1.17586ZM15.3659 18.9362L17.3542 19.0588L17.4901 21.0359L15.5018 21.5711L14.734 20.8725L15.3659 18.9349V18.9362Z" fill="white"/>
</svg>
