<svg width="34" height="35" viewBox="0 0 34 35" fill="none" xmlns="http://www.w3.org/2000/svg">
<path d="M31.7187 6.65H26.2937V3.25938C26.2937 1.76326 25.0774 0.546875 23.5812 0.546875H10.0187C8.52263 0.546875 7.30624 1.76326 7.30624 3.25938V6.65H1.88124C1.13107 6.65 0.524994 7.25608 0.524994 8.00625V9.3625C0.524994 9.54899 0.677572 9.70156 0.864056 9.70156H3.42398L4.47083 31.8678C4.53865 33.313 5.73384 34.4531 7.1791 34.4531H26.4209C27.8704 34.4531 29.0613 33.3173 29.1292 31.8678L30.176 9.70156H32.7359C32.9224 9.70156 33.075 9.54899 33.075 9.3625V8.00625C33.075 7.25608 32.4689 6.65 31.7187 6.65ZM23.2422 6.65H10.3578V3.59844H23.2422V6.65Z" fill="white"/>
</svg>
