<svg width="43" height="43" viewBox="0 0 43 43" fill="none" xmlns="http://www.w3.org/2000/svg">
<path d="M29.5625 5.375C26.445 5.375 23.4529 6.82625 21.5 9.11958C19.5471 6.82625 16.555 5.375 13.4375 5.375C7.91918 5.375 3.58334 9.71083 3.58334 15.2292C3.58334 22.0017 9.67501 27.52 18.9021 35.905L21.5 38.2521L24.0979 35.8871C33.325 27.52 39.4167 22.0017 39.4167 15.2292C39.4167 9.71083 35.0809 5.375 29.5625 5.375ZM21.6792 33.2354L21.5 33.4146L21.3208 33.2354C12.7925 25.5133 7.16668 20.4071 7.16668 15.2292C7.16668 11.6458 9.85418 8.95833 13.4375 8.95833C16.1967 8.95833 18.8842 10.7321 19.8338 13.1867H23.1842C24.1158 10.7321 26.8034 8.95833 29.5625 8.95833C33.1459 8.95833 35.8334 11.6458 35.8334 15.2292C35.8334 20.4071 30.2075 25.5133 21.6792 33.2354Z" fill="white"/>
</svg>
