<svg width="19" height="19" viewBox="0 0 19 19" fill="none" xmlns="http://www.w3.org/2000/svg">
<path d="M1.15335 8.57914L1.15371 8.57883L9.63945 1.21389L9.64072 1.2128C9.79582 1.07909 9.99452 1.00391 10.203 1.00391H12.1908C12.8193 1.00391 13.1116 1.78563 12.6345 2.19672C12.634 2.19714 12.6335 2.19757 12.633 2.19799L5.78052 8.14648H17.5859C17.9609 8.14648 18.2656 8.4512 18.2656 8.82617V10.1738C18.2656 10.5488 17.9609 10.8535 17.5859 10.8535H5.78276L12.6376 16.8041L12.6391 16.8053C13.108 17.2157 12.8267 17.9961 12.1931 17.9961H10.1379C9.98029 17.9961 9.81751 17.9403 9.68924 17.8252L1.15381 10.4213L1.15335 10.4209C1.02162 10.3063 0.916 10.1648 0.843622 10.006L1.29862 9.79866L0.843618 10.006C0.771242 9.8471 0.733788 9.67457 0.733788 9.5C0.733788 9.32543 0.771242 9.15289 0.843618 8.99404L1.29862 9.20134L0.843622 8.99403C0.916 8.83518 1.02162 8.6937 1.15335 8.57914Z" fill="white" stroke="white"/>
</svg>
