<svg width="19" height="19" viewBox="0 0 19 19" fill="none" xmlns="http://www.w3.org/2000/svg">
<path d="M17.8466 8.57914L17.8463 8.57883L9.36055 1.21389L9.35928 1.2128C9.20418 1.07909 9.00548 1.00391 8.79697 1.00391H6.80918C6.18071 1.00391 5.88838 1.78563 6.36551 2.19672C6.366 2.19714 6.3665 2.19757 6.36699 2.19799L13.2195 8.14648H1.41406C1.03909 8.14648 0.734375 8.4512 0.734375 8.82617V10.1738C0.734375 10.5488 1.03909 10.8535 1.41406 10.8535H13.2172L6.36237 16.8041L6.36088 16.8053C5.89196 17.2157 6.17332 17.9961 6.80693 17.9961H8.86211C9.01971 17.9961 9.18249 17.9403 9.31076 17.8252L17.8462 10.4213L17.8466 10.4209C17.9784 10.3063 18.084 10.1648 18.1564 10.006L17.7014 9.79866L18.1564 10.006C18.2288 9.8471 18.2662 9.67457 18.2662 9.5C18.2662 9.32543 18.2288 9.15289 18.1564 8.99404L17.7014 9.20134L18.1564 8.99403C18.084 8.83518 17.9784 8.6937 17.8466 8.57914Z" fill="white" stroke="white"/>
</svg>
