<svg width="99" height="17" viewBox="0 0 99 17" fill="none" xmlns="http://www.w3.org/2000/svg">
<path d="M72.5872 5.5525L71.1172 0.7125C70.8272 -0.2375 69.4872 -0.2375 69.2072 0.7125L67.7272 5.5525H63.2772C62.3072 5.5525 61.9072 6.8025 62.6972 7.3625L66.3372 9.9625L64.9072 14.5725C64.6172 15.5025 65.6972 16.2525 66.4672 15.6625L70.1572 12.8625L73.8472 15.6725C74.6172 16.2625 75.6972 15.5125 75.4072 14.5825L73.9772 9.9725L77.6172 7.3725C78.4072 6.8025 78.0072 5.5625 77.0372 5.5625H72.5872V5.5525Z" fill="#A71C1C"/>
<path d="M10.3096 6.00001L8.8396 1.16001C8.5496 0.21001 7.2096 0.21001 6.9296 1.16001L5.4496 6.00001H0.999597C0.0295973 6.00001 -0.370403 7.25001 0.419597 7.81001L4.0596 10.41L2.6296 15.02C2.3396 15.95 3.4196 16.7 4.1896 16.11L7.8796 13.31L11.5696 16.12C12.3396 16.71 13.4196 15.96 13.1296 15.03L11.6996 10.42L15.3396 7.82001C16.1296 7.25001 15.7296 6.01001 14.7596 6.01001H10.3096V6.00001Z" fill="#A71C1C"/>
<path d="M31.0688 6.00001L29.5988 1.16001C29.3088 0.21001 27.9688 0.21001 27.6888 1.16001L26.2088 6.00001H21.7588C20.7888 6.00001 20.3888 7.25001 21.1788 7.81001L24.8188 10.41L23.3888 15.02C23.0988 15.95 24.1788 16.7 24.9488 16.11L28.6388 13.31L32.3288 16.12C33.0988 16.71 34.1788 15.96 33.8888 15.03L32.4588 10.42L36.0988 7.82001C36.8888 7.25001 36.4888 6.01001 35.5188 6.01001H31.0688V6.00001Z" fill="#A71C1C"/>
<path d="M51.828 6.00001L50.358 1.16001C50.068 0.21001 48.728 0.21001 48.448 1.16001L46.968 6.00001H42.518C41.548 6.00001 41.148 7.25001 41.938 7.81001L45.578 10.41L44.148 15.02C43.858 15.95 44.938 16.7 45.708 16.11L49.398 13.31L53.088 16.12C53.858 16.71 54.938 15.96 54.648 15.03L53.218 10.42L56.858 7.82001C57.648 7.25001 57.248 6.01001 56.278 6.01001H51.828V6.00001Z" fill="#A71C1C"/>
<path d="M93.3465 6.00001L91.8765 1.16001C91.5865 0.21001 90.2465 0.21001 89.9665 1.16001L88.4865 6.00001H84.0365C83.0665 6.00001 82.6665 7.25001 83.4565 7.81001L87.0965 10.41L85.6665 15.02C85.3765 15.95 86.4565 16.7 87.2265 16.11L90.9165 13.31L94.6065 16.12C95.3765 16.71 96.4565 15.96 96.1665 15.03L94.7365 10.42L98.3765 7.82001C99.1665 7.25001 98.7665 6.01001 97.7965 6.01001H93.3465V6.00001Z" fill="#A71C1C"/>
</svg>
