<svg width="27" height="35" viewBox="0 0 27 35" fill="none" xmlns="http://www.w3.org/2000/svg">
<path d="M0.131744 34.7143L1.09181 34.5049C1.84906 34.3475 2.60812 34.1988 3.36884 34.0591C3.71923 33.9972 4.06421 33.9408 4.4146 33.8725L4.49271 33.8497C4.85395 33.7879 5.21194 33.7195 5.57319 33.6805L7.3295 33.4201V0H7.26767C6.36022 0.00559815 5.45288 0.022595 4.54586 0.0509866C3.54458 0.0802768 2.52811 0.136688 1.52899 0.203946C1.0994 0.231067 0.664389 0.27229 0.228293 0.304835H0.166459V34.7024L0.131744 34.7143ZM9.0305 0.0227813V33.2053C10.2727 33.0585 11.518 32.9398 12.7655 32.8495C15.8334 32.6183 18.9111 32.5448 21.9865 32.6293C23.6137 32.6803 25.2409 32.7757 26.8627 32.9113V2.17507C25.4118 1.84072 23.9518 1.54698 22.4844 1.29419C19.6362 0.806203 16.7666 0.453241 13.8851 0.236491C12.2714 0.119699 10.6547 0.048434 9.03701 0.0227813H9.0305ZM24.603 21.4241L24.5347 21.4198L23.72 21.3287C21.6972 21.1191 19.6677 20.9798 17.6353 20.911C15.6001 20.8508 13.5635 20.8584 11.5288 20.9338H11.467C11.3987 20.9338 11.3368 20.9338 11.2685 20.911C11.1239 20.8741 10.9912 20.8005 10.8834 20.6973C10.762 20.5723 10.6826 20.4125 10.6564 20.2402C10.6301 20.0679 10.6583 19.8917 10.7369 19.7362C10.776 19.6743 10.827 19.5886 10.8834 19.5441C10.9459 19.484 11.0164 19.4325 11.0927 19.3912C11.1828 19.3521 11.2674 19.3294 11.3531 19.3077H11.4822C11.7653 19.3077 12.0474 19.2849 12.3077 19.2849C14.3171 19.2339 16.3275 19.2469 18.3361 19.3239C20.42 19.4151 22.4833 19.5669 24.5401 19.8045L24.7603 19.8273C24.8222 19.8501 24.8851 19.8501 24.9524 19.8663C25.1042 19.9347 25.2344 20.0193 25.3255 20.1321C25.3874 20.194 25.4264 20.2797 25.472 20.3697C25.5169 20.4491 25.5404 20.5388 25.5403 20.6301C25.5499 20.7491 25.5336 20.8688 25.4926 20.9809C25.4516 21.0931 25.3868 21.1951 25.3028 21.2799C25.2344 21.3482 25.1672 21.3873 25.1042 21.4317C25.0381 21.4784 24.9524 21.4936 24.8667 21.5174C24.8222 21.5402 24.7983 21.5402 24.7376 21.5402H24.6692L24.603 21.4241ZM24.6529 17.5047C24.5846 17.5047 24.5846 17.5047 24.5173 17.4927L23.7146 17.3897C21.7004 17.1304 19.6761 16.957 17.6472 16.8701C15.6168 16.7654 13.5831 16.7368 11.5505 16.7844L11.4822 16.7627C11.4203 16.7399 11.3531 16.7399 11.2913 16.7182C11.149 16.6746 11.0217 16.5923 10.9235 16.4806C10.879 16.4123 10.8107 16.3277 10.7933 16.2647C10.7361 16.1463 10.7078 16.016 10.7109 15.8846C10.7139 15.7531 10.7481 15.6243 10.8107 15.5086C10.8498 15.4276 10.901 15.3529 10.9626 15.2873C11.0244 15.2255 11.0927 15.1571 11.1784 15.1409C11.2685 15.0964 11.3531 15.0497 11.4377 15.0497L11.5679 15.028L12.4151 15.0053C14.4179 14.9833 16.4208 15.0267 18.4207 15.1354C20.495 15.2467 22.5644 15.4349 24.6247 15.6995L24.846 15.7223L24.9762 15.7451C25.1279 15.7812 25.2642 15.8643 25.3657 15.9827C25.5403 16.1573 25.626 16.3949 25.6032 16.6325C25.6032 16.7225 25.5815 16.8071 25.5414 16.8701C25.4969 16.9612 25.4514 17.023 25.4112 17.0903C25.3668 17.1521 25.3038 17.1988 25.2149 17.2671C25.153 17.3062 25.0619 17.3279 24.9773 17.3506L24.8471 17.3734H24.7853L24.6529 17.5047ZM24.6529 13.5831C24.5846 13.5831 24.5846 13.5831 24.5173 13.5711L23.7146 13.4583C21.7 13.18 19.6763 12.9727 17.6472 12.8367C15.6176 12.7064 13.5843 12.6442 11.5505 12.6501H11.4822L11.3531 12.6273C11.2702 12.6056 11.1904 12.5736 11.1155 12.5319C11.0063 12.4611 10.9132 12.3683 10.842 12.2593C10.7708 12.1504 10.7232 12.0278 10.7022 11.8994C10.7022 11.8083 10.7022 11.7226 10.725 11.6391C10.7434 11.5531 10.7721 11.4697 10.8107 11.3906C10.8593 11.3133 10.918 11.2429 10.9853 11.1813C11.0999 11.0726 11.2428 10.9986 11.3976 10.9675C11.4625 10.9514 11.5292 10.9438 11.5961 10.9448H12.4206C16.5141 10.9644 20.6014 11.2682 24.6529 11.8538L24.8667 11.8831C24.935 11.8951 24.9578 11.8951 24.9968 11.9103C25.0819 11.9366 25.1621 11.9765 25.2344 12.0285C25.3255 12.0752 25.3874 12.137 25.4329 12.2053C25.4774 12.2715 25.5186 12.3518 25.5631 12.4364C25.6047 12.5479 25.6223 12.6669 25.6146 12.7856C25.607 12.9043 25.5742 13.0201 25.5186 13.1253C25.4809 13.2058 25.4291 13.2789 25.3657 13.3411C25.2596 13.449 25.1242 13.5233 24.9762 13.5548C24.9361 13.5722 24.9144 13.5722 24.846 13.5776L24.7842 13.5831H24.6529ZM24.6529 9.66251C24.5846 9.66251 24.5846 9.66251 24.5173 9.65057L23.7146 9.5204C21.7035 9.19334 19.6791 8.95409 17.6472 8.80333C15.6188 8.63625 13.5855 8.53458 11.5505 8.49849H11.4822L11.3303 8.48114C11.2446 8.45944 11.1665 8.41279 11.0927 8.37374C11.0135 8.32926 10.9506 8.26092 10.8888 8.19908C10.8378 8.13074 10.7933 8.04612 10.7543 7.98537C10.7247 7.89911 10.704 7.81005 10.6924 7.71959C10.6805 7.5892 10.6976 7.45778 10.7424 7.33476C10.7873 7.21173 10.8587 7.10013 10.9517 7.00795C11.0661 6.89989 11.2067 6.8236 11.3596 6.78664C11.4203 6.77037 11.4887 6.77037 11.5505 6.77037C13.9049 6.79841 16.2573 6.92109 18.6018 7.13813C20.6077 7.30736 22.6081 7.56663 24.5976 7.89425L24.7961 7.91703C24.8526 7.91703 24.8688 7.91703 24.9252 7.9333C25.0164 7.96259 25.0847 8.00164 25.1628 8.04612C25.2312 8.08626 25.293 8.1546 25.3451 8.21644C25.4742 8.41279 25.536 8.65037 25.4969 8.88903C25.4771 8.97327 25.4465 9.05458 25.4058 9.13094C25.3585 9.20412 25.2995 9.26899 25.2312 9.32296C25.1221 9.42847 24.9881 9.50461 24.8417 9.54426H24.6432L24.6529 9.66251ZM1.98461 8.92157C1.76259 8.92143 1.54898 8.83663 1.38732 8.68444C1.22566 8.53225 1.12812 8.32414 1.11459 8.10253C1.11459 8.01683 1.13628 7.93764 1.15907 7.86496C1.18218 7.76417 1.22656 7.66948 1.28924 7.58724C1.35322 7.49598 1.43382 7.4176 1.52682 7.35618C1.6344 7.29004 1.75314 7.24409 1.87721 7.22057L2.5715 7.15874C3.5218 7.07521 4.45908 7.00686 5.39202 6.95045H5.47555C5.62851 6.95588 5.75761 6.98408 5.86609 7.05134C6.14814 7.19888 6.32279 7.49286 6.32279 7.80312C6.3189 7.88185 6.30393 7.95964 6.27832 8.03419C6.25745 8.13345 6.21278 8.22615 6.14814 8.30431C6.0863 8.41713 5.99518 8.47897 5.91056 8.54731C5.80246 8.61125 5.68379 8.65533 5.56017 8.67749C5.41263 8.70027 5.26076 8.70027 5.1078 8.71654C4.90928 8.73932 4.69557 8.73932 4.47535 8.76319L2.78629 8.89228L2.37406 8.93893C2.28836 8.96063 2.19941 8.96063 2.09092 8.96063L1.98461 8.92157ZM24.6302 5.74088L24.4956 5.72352L23.6983 5.58141C21.6756 5.24169 19.6423 4.96852 17.6016 4.76237C15.5741 4.56671 13.5409 4.43646 11.505 4.37183H11.4366L11.3064 4.34471C11.2233 4.32137 11.1434 4.28746 11.0689 4.24382C10.9984 4.19267 10.9343 4.13331 10.8779 4.067C10.791 3.96948 10.7294 3.85207 10.6986 3.72513C10.6677 3.59819 10.6686 3.46561 10.7011 3.33908C10.7239 3.24796 10.763 3.16442 10.8096 3.07872C10.8541 2.9876 10.917 2.92576 10.9843 2.85851C11.1001 2.75124 11.2424 2.67673 11.3965 2.64263C11.4583 2.61984 11.5267 2.61984 11.5885 2.61984L12.4357 2.64263C14.4524 2.72833 16.4463 2.85851 18.4413 3.07764C20.5252 3.29135 22.582 3.59727 24.6454 3.94224L24.8591 3.96394C24.9274 3.96394 24.9502 3.96394 24.9892 3.98672C25.0804 4.00842 25.1639 4.05506 25.2322 4.09412C25.3275 4.1679 25.4072 4.25989 25.4666 4.36474C25.526 4.4696 25.564 4.58521 25.5783 4.70487C25.6 4.7884 25.5783 4.8741 25.5555 4.96523C25.5515 5.05125 25.5217 5.13405 25.4698 5.2028C25.4252 5.27273 25.3744 5.33845 25.3179 5.39916C25.2046 5.50567 25.0601 5.57298 24.9057 5.59117L24.781 5.61395H24.7126L24.6302 5.74088ZM1.96183 4.62676C1.83728 4.62627 1.71422 4.59967 1.60059 4.54866C1.50019 4.49787 1.40891 4.43079 1.33047 4.35014C1.20793 4.21309 1.13098 4.04138 1.11025 3.85871C1.08873 3.63681 1.15452 3.41526 1.29366 3.24108C1.43281 3.0669 1.63435 2.95379 1.85552 2.92576C2.08658 2.90949 2.3144 2.90949 2.54004 2.88671C3.48274 2.81837 4.4222 2.77931 5.35948 2.73484H5.43324C5.56342 2.75653 5.6936 2.77931 5.801 2.84223C6.06027 2.99411 6.23601 3.29894 6.23601 3.59835C6.23423 3.6814 6.21846 3.76355 6.18936 3.84135C6.15129 3.94092 6.10217 4.03589 6.04291 4.12449C5.97258 4.21586 5.88146 4.28912 5.77713 4.3382C5.66707 4.40784 5.53962 4.44506 5.40938 4.4456C5.2575 4.46838 5.10455 4.46838 4.9288 4.46838L4.279 4.51286C3.69754 4.55191 3.13235 4.57469 2.56607 4.62026L2.13215 4.64304C2.02366 4.66582 1.94013 4.66582 1.84901 4.66582L1.96183 4.62676Z" fill="white"/>
</svg>
