<svg width="33" height="25" viewBox="0 0 33 25" fill="none" xmlns="http://www.w3.org/2000/svg">
<path d="M0.366669 4.03334C0.366669 2.96363 0.791608 1.93773 1.548 1.18134C2.3044 0.424939 3.3303 0 4.4 0H28.6C29.6697 0 30.6956 0.424939 31.452 1.18134C32.2084 1.93773 32.6333 2.96363 32.6333 4.03334V20.1667C32.6333 21.2364 32.2084 22.2623 31.452 23.0187C30.6956 23.7751 29.6697 24.2 28.6 24.2H4.4C3.3303 24.2 2.3044 23.7751 1.548 23.0187C0.791608 22.2623 0.366669 21.2364 0.366669 20.1667V4.03334ZM4.4 2.01667C3.86515 2.01667 3.3522 2.22914 2.974 2.60734C2.5958 2.98553 2.38334 3.49848 2.38334 4.03334V20.1667C2.38334 20.7015 2.5958 21.2145 2.974 21.5927C3.3522 21.9709 3.86515 22.1833 4.4 22.1833H15.4917V2.01667H4.4ZM28.6 22.1833C29.1349 22.1833 29.6478 21.9709 30.026 21.5927C30.4042 21.2145 30.6167 20.7015 30.6167 20.1667V4.03334C30.6167 3.49848 30.4042 2.98553 30.026 2.60734C29.6478 2.22914 29.1349 2.01667 28.6 2.01667H17.5083V22.1833H28.6ZM28.3056 15.8389C28.4949 15.6496 28.6013 15.3928 28.6013 15.125C28.6013 14.8572 28.4949 14.6004 28.3056 14.4111C28.1162 14.2218 27.8594 14.1154 27.5917 14.1154C27.3239 14.1154 27.0671 14.2218 26.8778 14.4111L24.5667 16.7242V5.04167C24.5667 4.77424 24.4604 4.51777 24.2713 4.32867C24.0822 4.13957 23.8258 4.03334 23.5583 4.03334C23.2909 4.03334 23.0344 4.13957 22.8453 4.32867C22.6562 4.51777 22.55 4.77424 22.55 5.04167V16.7242L20.2389 14.4111C20.1451 14.3174 20.0339 14.243 19.9114 14.1923C19.7889 14.1415 19.6576 14.1154 19.525 14.1154C19.3924 14.1154 19.2611 14.1415 19.1386 14.1923C19.0161 14.243 18.9049 14.3174 18.8111 14.4111C18.7173 14.5049 18.643 14.6162 18.5922 14.7386C18.5415 14.8611 18.5154 14.9924 18.5154 15.125C18.5154 15.2576 18.5415 15.3889 18.5922 15.5114C18.643 15.6339 18.7173 15.7452 18.8111 15.8389L22.8444 19.8722C22.9381 19.9661 23.0494 20.0406 23.1719 20.0915C23.2944 20.1423 23.4257 20.1685 23.5583 20.1685C23.691 20.1685 23.8223 20.1423 23.9448 20.0915C24.0673 20.0406 24.1786 19.9661 24.2722 19.8722L28.3056 15.8389Z" fill="white"/>
</svg>
